<?xml version="1.0" encoding="UTF-8" standalone="no"?>
<svg
   xmlns:dc="http://purl.org/dc/elements/1.1/"
   xmlns:cc="http://creativecommons.org/ns#"
   xmlns:rdf="http://www.w3.org/1999/02/22-rdf-syntax-ns#"
   xmlns:svg="http://www.w3.org/2000/svg"
   xmlns="http://www.w3.org/2000/svg"
   xml:space="preserve"
   style="enable-background:new 0 0 431.8 141.1;"
   viewBox="0 0 431.8 141.1"
   y="0px"
   x="0px"
   id="Layer_1"
   version="1.1"><metadata
   id="metadata25"><rdf:RDF><cc:Work
       rdf:about=""><dc:format>image/svg+xml</dc:format><dc:type
         rdf:resource="http://purl.org/dc/dcmitype/StillImage" /><dc:title></dc:title></cc:Work></rdf:RDF></metadata><defs
   id="defs23" />
<g
   id="g6">
	<g
   id="g4">
		<path
   id="path2"
   d="M18.8,35.2c34,51.7,88.9,88.7,149.5,101.3C228.5,149,291.8,135.9,343,102c28.8-19.1,53.4-44.2,71.4-73.8    c6-9.9-9.5-19-15.5-9.1c-29.2,48.1-77.7,83.2-132,97.4c-55.4,14.5-114.3,4.6-163.2-24.6C76,75.4,52,53,34.3,26.1    C28,16.5,12.4,25.5,18.8,35.2L18.8,35.2z" />
	</g>
</g>
<g
   id="g12">
	<g
   id="g10">
		<path
   id="path8"
   d="M392.7,13.6c6.4,12.2,14.5,23.4,23.9,33.5c8,8.5,20.7-4.3,12.7-12.7c-8.4-9-15.4-18.9-21.1-29.8    C402.9-5.8,387.4,3.3,392.7,13.6L392.7,13.6z" />
	</g>
</g>
<g
   id="g18">
	<g
   id="g16">
		<path
   id="path14"
   d="M25.9,7.3C19.5,17.8,11.8,27.2,2.8,35.6c-8.5,7.9,4.2,20.6,12.7,12.7c10.1-9.4,18.8-20.1,26-31.9    C47.5,6.5,32-2.6,25.9,7.3L25.9,7.3z" />
	</g>
</g>
</svg>